<?xml version="1.0" encoding="UTF-8"?>
<svg id="_圖層_1" data-name="圖層_1" xmlns="http://www.w3.org/2000/svg" version="1.1" viewBox="0 0 400.7 65">
  <!-- Generator: Adobe Illustrator 29.1.0, SVG Export Plug-In . SVG Version: 2.1.0 Build 142)  -->
  <defs>
    <style>
      .st0 {
        fill: #fff;
      }
    </style>
  </defs>
  <g>
    <circle class="st0" cx="191" cy="15.2" r="3.7"/>
    <g>
      <path class="st0" d="M395.1,11.9l-20-11.9h-16.3l-22.2,11.9h-4.4v8.8h6.6l9.5-5.1v4.2h37.3v-3.3l7,4.2h8v-8.8h-5.6ZM353.6,12.8l7.5-4h11.7l6.7,4h-25.8Z"/>
      <path class="st0" d="M334.4,43.4h64.1l1.3-20.6h-66l.6,20.6ZM363,36.3h-4.4l-3.3-6.6h7.7v6.6ZM370,29.8h7.7l-3.3,6.6h-4.4v-6.6ZM391.9,36.3h-9.6l3.3-6.6h6.7l-.4,6.6ZM347.4,29.8l3.3,6.6h-9.5l-.2-6.6h6.4Z"/>
      <path class="st0" d="M339,64.7h54.6l1.1-18.4h-56.2l.5,18.4ZM387,57.7h-19.2l4-4.4h15.5l-.3,4.4ZM362.3,53.3l-4,4.4h-12.5v-4.4c-.1,0,16.5,0,16.5,0Z"/>
      <polygon class="st0" points="316.2 .9 307.4 .9 307.4 5.2 278.1 5.2 278.1 .6 269.3 .6 269.3 5.2 259.8 5.2 259.8 13.9 269.3 13.9 269.3 17.5 278.1 17.5 278.1 13.9 307.4 13.9 307.4 17.8 316.2 17.8 316.2 13.9 325.3 13.9 325.3 5.2 316.2 5.2 316.2 .9"/>
      <path class="st0" d="M306.1,47.7h17.4v-8.8h-3v-16.7h-23.6v-3.9h-8.8v3.9h-23.6v16.7h-4.8v8.8h19.3l-9.8,7.1h-7.8v8.8h10.7l20.6-15.1,19.5,15.1h12v-8.8h-9l-9.2-7.1ZM311.7,31.1v7.9h-14.8v-7.9h14.8ZM273.4,31.1h14.8v7.9h-14.8v-7.9Z"/>
      <path class="st0" d="M222.2,21.8v8.8s6.4,0,6.4,0l8.1-7.2,8,8h8.1v-8.8h-4.4l-5-5,3.4-3c3.9-3.5,6.1-8.5,6.1-13.7h-30.2v8.8h16.7l-13.9,12.1h-3.1Z"/>
      <polygon class="st0" points="243.9 44.3 235.1 44.3 235.1 50.2 226.6 57.3 226.6 41.9 252.8 41.9 252.8 33.4 187.3 33.4 187.3 41.9 214.9 41.9 214.9 57.7 204.9 50 204.9 44.3 196.1 44.3 196.1 50.2 186.6 58.2 192.3 64.9 200.6 57.8 210 65 214.9 58.5 214.9 64.7 226.6 64.7 226.6 59.3 231.3 64.9 239.7 57.8 249 65 254.4 58 243.9 50 243.9 44.3"/>
    </g>
    <path class="st0" d="M205.6,30.2h-17.2c0-4.2,3.4-7.6,7.6-7.6h9.5c4.1,0,7.5-3.3,7.5-7.5h0c0-4.1-3.3-7.5-7.5-7.5h-9.5c-4.2,0-7.6-3.4-7.6-7.6h0s17.2,0,17.2,0c8.3,0,15.1,6.7,15.1,15.1h0c0,8.3-6.7,15.1-15.1,15.1Z"/>
  </g>
  <g>
    <g>
      <path class="st0" d="M33.1,64.5H0v-12.3c0-6.8,3.9-12.2,8.7-12.2h23.3c1.6,0,2.9-1.9,2.9-4.1s-1.3-4.1-2.9-4.1H7.8c-4.3,0-7.8-3.7-7.8-8.2h0s32.1,0,32.1,0c4.8,0,8.7,5.5,8.7,12.3s-3.9,12.2-8.7,12.2H8.7c-1.6,0-2.9,1.8-2.9,4.1v4.1h34.9c0,4.5-3.5,8.1-7.7,8.1Z"/>
      <path class="st0" d="M45.4,52.2v-16.3c0-6.8,3.9-12.3,8.7-12.3h23.3c4.8,0,8.7,5.5,8.7,12.3v16.3c0,6.8-4,12.3-8.7,12.3h-23.3c-4.9,0-8.7-5.4-8.7-12.3ZM51.2,52.2c0,2.3,1.3,4.1,2.9,4.1h23.3c1.6,0,2.9-1.8,2.9-4.1v-16.3c0-2.3-1.3-4.1-2.9-4.1h-23.3c-1.6,0-2.9,1.8-2.9,4.1v16.3Z"/>
      <path class="st0" d="M123.8,64.5h-33.1v-12.3c0-6.8,3.9-12.2,8.7-12.2h23.3c1.6,0,2.9-1.9,2.9-4.1s-1.3-4.1-2.9-4.1h-24.2c-4.3,0-7.8-3.7-7.8-8.2h0s32.1,0,32.1,0c4.8,0,8.7,5.5,8.7,12.3s-3.9,12.2-8.7,12.2h-23.3c-1.6,0-2.9,1.8-2.9,4.1v4.1h34.9c0,4.5-3.5,8.1-7.7,8.1Z"/>
      <path class="st0" d="M168.1,64.5h-24.3c-4.3,0-7.8-3.7-7.8-8.2h0s32,0,32,0c1.6,0,2.9-1.8,2.9-4.1s-1.3-4.1-2.9-4.1h-32v-24.5h40.8c0,4.5-3.5,8.2-7.8,8.2h-27.2v8.2h26.2c4.8,0,8.8,5.4,8.8,12.2s-4,12.3-8.8,12.3Z"/>
    </g>
    <g>
      <path class="st0" d="M4.2,3.7v8.3c0,.6.4,1.2.8,1.2h6.7c.5,0,.8-.5.8-1.2V3.7h1.7v8.3c0,2-1.1,3.6-2.5,3.6h-6.7c-1.4,0-2.5-1.6-2.5-3.6V3.7h1.7Z"/>
      <path class="st0" d="M31.4,3.7h1.7v9.8c0,1.1-.7,2.1-1.5,2.1s-.6-.2-.9-.4l-7.7-8.8v9.2h-1.7V5.8c0-1.2.7-2.1,1.5-2.1s.6.2.9.4l7.7,8.8V3.7Z"/>
      <path class="st0" d="M40.2,3.7h1.7v11.9h-1.7V3.7Z"/>
      <path class="st0" d="M54.1,15.7V6.1h-5v-2.4h11.7v2.4h-5v9.5h-1.7Z"/>
      <path class="st0" d="M70.4,3.7h9.2v2.4h-9.2c-.5,0-.8.5-.8,1.2v1.2h10v2.4h-10v1.2c0,.6.4,1.2.8,1.2h9.2v2.4h-9.2c-1.4,0-2.5-1.6-2.5-3.6v-4.8c0-2,1.1-3.6,2.5-3.6Z"/>
      <path class="st0" d="M95.9,15.7h-9.2V3.7h9.2c1.4,0,2.5,1.6,2.5,3.6v4.8c0,2-1.1,3.6-2.5,3.6ZM88.4,13.3h7.5c.5,0,.8-.5.8-1.2v-4.8c0-.7-.4-1.2-.8-1.2h-7.5v7.1Z"/>
      <path class="st0" d="M127.3,15.7h-9.2V3.7h9.2c1.4,0,2.5,1.6,2.5,3.6v4.8c0,2-1.1,3.6-2.5,3.6ZM119.8,13.3h7.5c.5,0,.8-.5.8-1.2v-4.8c0-.7-.4-1.2-.8-1.2h-7.5v7.1Z"/>
      <path class="st0" d="M148.4,15.7h-1.9l-1.5-3.6h-5.7l-1.5,3.6h-1.9l4.5-10.8c.3-.7.8-1.2,1.4-1.2h.7c.6,0,1.1.5,1.4,1.2l4.5,10.8ZM143.9,9.7l-1.5-3.6h-.7l-1.5,3.6h3.7Z"/>
      <path class="st0" d="M158.7,10.2v5.4h-1.7v-5.4l-5.1-6.5h2.5l3.4,4.4,3.4-4.4h2.5l-5.1,6.5Z"/>
    </g>
  </g>
</svg>