<?xml version="1.0" encoding="UTF-8"?>
<svg id="_图层_1" data-name="图层_1" xmlns="http://www.w3.org/2000/svg" version="1.1" viewBox="0 0 1102 206.7">
  <!-- Generator: Adobe Illustrator 29.1.0, SVG Export Plug-In . SVG Version: 2.1.0 Build 142)  -->
  <defs>
    <style>
      .st0 {
        fill: #fff;
      }
    </style>
  </defs>
  <path class="st0" d="M797.5,86.9"/>
  <path class="st0" d="M884.5,41.1h-59.3l.2-19.2h68.2v10.3c0,4.9-4,8.9-9.1,8.9"/>
  <path class="st0" d="M864.5,41c0,48.5-2.6,116-55.2,143.8v21.6c76.2-37.8,73-121.1,73.8-165.6"/>
  <path class="st0" d="M816.3,41c-.3,53.6-1.4,121.6,79.4,165.7v-22.6c-58.1-34.5-63.3-87.9-61.2-142.8"/>
  <path class="st0" d="M808.1,100.8h-15.8l-1.9-1.6s-1.3,0,.3-3.1c6.7-12.8,24.8-50.5,31.5-94.6h17.4s-8.3,55-31.5,99.2"/>
  <path class="st0" d="M733.5,125.3h-21.2c-4.8,0-8.7-3.9-8.7-8.7v-29.5h36.7v-7.7h-28c-4.8,0-8.7-3.9-8.7-8.7V13.4h36.7V1.3h10.9c4.8,0,8.7,3.9,8.7,8.7v3.4h36.7v57.4c0,4.8-3.9,8.7-8.7,8.7h-28v7.7h36.7v29.5c0,4.8-3.9,8.7-8.7,8.7h-32.3M797.5,53.4h-101.8v-15.4h108.1v9.1c0,3.5-2.8,6.3-6.3,6.3M721.6,40.1h18.7v-11.3h-18.7v11.3ZM721.6,62.6h18.7v-10.5h-18.7v10.5ZM721.6,110.9h18.7v-9.3h-18.7v9.3ZM778.7,28.7h-18.7v11.3h18.7v-11.3ZM760,52.9v10.5h18.7v-11l-18.7.5ZM779.6,101.6h-19.6v9.3h19.6v-9.3Z"/>
  <path class="st0" d="M803.2,206.7l-91.8-38c-2.3-.9-3-3.8-1.5-5.7l36.6-46.1,16.2,7.5-28.3,34.7,65.4,26.3c2.1.9,3.4,2.9,3.4,5.2v16.3Z"/>
  <path class="st0" d="M695.5,205.1v-17.7c40.7-1.7,60.7-14.9,77-33.9h-68.8c-4.5,0-8.1-3.6-8.1-8.1v-9.2h99.9c2.5,0,4.3,2.4,3.6,4.8-4.8,15.7-27.8,64.1-103.6,64.1"/>
  <path class="st0" d="M574.5,204.2c6.5-10.6,11.2-39.3,11.2-72.9,0-57.8.1-89.3.2-103.8,0-5.8,4.5-10.6,10.3-11l74.6-4.9-1,13.3c-.3,5.4-3.6,8.9-8.4,9.3l-50.9,3.1c-2.4.2-4.3,2.2-4.3,4.6,0,12.8-.1,37.3-.1,89.4s-5.2,62.2-11.1,72.9"/>
  <path class="st0" d="M661.2,93.7h-60.7v-20.4h69.4v11.8c0,4.8-3.9,8.7-8.7,8.7"/>
  <rect class="st0" x="630" y="85.9" width="20.4" height="118.3"/>
  <path class="st0" d="M517,204.7v-74.2h-38.9v-18.8h38.9v-19.6h-45.3v-18.8h108.5v10.1c0,4.8-3.9,8.7-8.7,8.7h-33.2v19.6h37.6v10.1c0,4.8-3.9,8.7-8.7,8.7h-28.9v74.2h-21.4Z"/>
  <path class="st0" d="M501.6,35.3h-23.9v-18.8h98.2v10.1c0,4.8-3.9,8.7-8.7,8.7h-64.8"/>
  <path class="st0" d="M516.7,24.3V.9c11.8,0,21.4,9.6,21.4,21.4v2.1h-21.4Z"/>
  <path class="st0" d="M522.7,83.2h-21l-13.8-39.4h17c2.4,0,4.5,1.5,5.3,3.7l12.5,35.6Z"/>
  <path class="st0" d="M531.7,83.2h21l13.8-39.4h-17c-2.4,0-4.5,1.5-5.3,3.7l-12.5,35.6Z"/>
  <polygon class="st0" points="546.3 139.4 567.3 139.4 578.6 195.2 557.6 195.2 546.3 139.4"/>
  <path class="st0" d="M493.9,201l-22.3-.2c15.3-21.7,15.2-45.1,15-61.2,17.8,0,20.8,0,20.8,0,.4,15.2,0,45.4-13.6,61.4"/>
  <path class="st0" d="M426.4,145.1h-53.5v-12.5h45.4c8.5,0,15.4-6.9,15.4-15.4V8.9h-10.1c-5.9,0-10.8,4.8-10.8,10.8v89.6c0,2.1-1.7,3.8-3.8,3.8h-47.2c-5.4,0-9.8,4.4-9.8,9.8v81.8h20.8v-41.5h39.2c2.3,0,4.1,1.8,4.1,4.1v37.6h20.8v-49.2c0-5.9-4.8-10.7-10.7-10.7M290.2,102.6h99.1c4.5,0,8.2-3.7,8.2-8.2V2.5h-115.5v91.9c0,4.5,3.7,8.2,8.2,8.2M302.8,19.4h73.9v10.9h-73.9v-10.9ZM302.8,47h73.9v10.9h-73.9v-10.9ZM302.8,73.4h73.9v10.9h-73.9v-10.9ZM317.6,113.1h-47.2c-2.1,0-3.8-1.7-3.8-3.8V19.7c0-5.9-4.8-10.8-10.8-10.8h-10.1v108.3c0,8.5,6.9,15.4,15.4,15.4h45.4v12.5h-65.4v9.6c0,4.7,3.8,8.6,8.6,8.6h8.6c0,24.6-13.8,41.5-13.8,41.5h23.8s11.6-17.1,11.6-41.5h26.7v41.5h20.8v-81.8c0-5.4-4.4-9.8-9.8-9.8"/>
  <path class="st0" d="M975.7,79.5l15.6,19.7c1.5,1.9,3.9,4.1,8.8,4.1h20.7l-28.6-34.3h16.2c4.9,0,8.9-4,8.9-8.9v-8.5h-36v-21h23.3c4.9,0,8.9-4,8.9-8.9v-9h-60.2c1.5-5.4,1.9-8.6,1.9-11.3h-19.4c.1,7.3-6.7,23-22.1,30.8v20.4c15.1-5.1,24.8-13.4,31-22h16.9v21h-44.2v17.3h41.4c-4.3,10.2-17,21.5-42.4,25.8v19.4c14.9-1.8,45.2-8.6,59.2-34.7"/>
  <path class="st0" d="M935.4,112.4v81.5c0,5.9,4.8,10.8,10.8,10.8h133.7c5.9,0,10.8-4.8,10.8-10.8v-81.5h-155.3ZM1071.1,180.6c0,2.8-2.3,5.1-5.1,5.1h-106.1c-2.8,0-5.1-2.3-5.1-5.1v-12.8h116.3v12.8ZM1071.1,148.7h-116.3v-16.8h116.3v16.8Z"/>
  <path class="st0" d="M1024.4,10.3v79.7c0,7.3,5.9,13.2,13.2,13.2h51.7c7.1,0,12.8-5.7,12.8-12.8V10.3h-77.7ZM1083.5,79.3c0,2.6-2.1,4.8-4.8,4.8h-29.4c-3.5,0-6.4-2.9-6.4-6.4V29.9h40.6v49.4Z"/>
  <path class="st0" d="M0,204.4c0-20.3,16.5-36.8,36.8-36.8h63.4c36.1,0,65.4-29.3,65.4-65.4s-29.3-65.4-65.4-65.4h-63.4C16.5,36.8,0,20.3,0,0h100.2c56.5,0,102.2,45.8,102.2,102.2s-45.8,102.2-102.2,102.2H0Z"/>
  <path class="st0" d="M10.8,102.2c0-14.6,11.8-26.3,26.3-26.3s26.4,11.8,26.4,26.3-11.8,26.3-26.4,26.3-26.3-11.8-26.3-26.3"/>
</svg>