<?xml version="1.0" encoding="UTF-8"?>
<svg id="_图层_1" xmlns="http://www.w3.org/2000/svg" version="1.1" viewBox="0 0 642.1 119.5">
  <!-- Generator: Adobe Illustrator 29.1.0, SVG Export Plug-In . SVG Version: 2.1.0 Build 142)  -->
  <defs>
    <style>
      .st0 {
        fill: #fff;
      }
    </style>
  </defs>
  <path class="st0" d="M0,119.5c0-11.9,9.6-21.5,21.5-21.5h37c21.1,0,38.2-17.1,38.2-38.2s-17.1-38.2-38.2-38.2H21.5C9.6,21.5,0,11.9,0,0h58.5c33,0,59.7,26.7,59.7,59.7s-26.7,59.7-59.7,59.7H0Z"/>
  <path class="st0" d="M6.3,59.7c0-8.5,6.9-15.4,15.4-15.4s15.4,6.9,15.4,15.4-6.9,15.4-15.4,15.4-15.4-6.9-15.4-15.4"/>
  <path class="st0" d="M250.1,84.7h-30.8v-7.2h26.1c4.9,0,8.9-4,8.9-8.9V6.3h-5.8c-3.4,0-6.2,2.8-6.2,6.2v51.6c0,1.2-1,2.2-2.2,2.2h-27.2c-3.1,0-5.7,2.5-5.7,5.7v47.1h12v-23.9h22.6c1.3,0,2.4,1.1,2.4,2.4v21.6h12v-28.3c0-3.4-2.8-6.2-6.2-6.2M171.7,60.3h57.1c2.6,0,4.7-2.1,4.7-4.7V2.6h-66.5v52.9c0,2.6,2.1,4.7,4.7,4.7M178.9,12.3h42.5v6.3h-42.5v-6.3ZM178.9,28.2h42.5v6.3h-42.5v-6.3ZM178.9,43.4h42.5v6.3h-42.5v-6.3ZM187.4,66.3h-27.2c-1.2,0-2.2-1-2.2-2.2V12.5c0-3.4-2.8-6.2-6.2-6.2h-5.8v62.4c0,4.9,4,8.9,8.9,8.9h26.1v7.2h-37.7v5.5c0,2.7,2.2,4.9,4.9,4.9h4.9c0,14.2-8,23.9-8,23.9h13.7s6.7-9.9,6.7-23.9h15.4v23.9h12v-47.1c0-3.1-2.5-5.7-5.7-5.7"/>
  <path class="st0" d="M569.3,46.6l9,11.3c.9,1.1,2.2,2.4,5.1,2.4h11.9l-16.5-19.8h9.4c2.8,0,5.1-2.3,5.1-5.1v-4.9h-20.7v-12.1h13.4c2.8,0,5.1-2.3,5.1-5.1v-5.2h-34.7c.9-3.1,1.1-5.7,1.1-7.3h-11.2c0,4.2-3,14.1-12.7,18.5v11.7c8.7-2.9,14.3-7.7,17.9-12.7h9.8v12.1h-25.5v10h23.8c-2.5,5.9-9.8,12.4-24.4,14.9v11.2c8.6-1.1,26-4.9,34.1-20"/>
  <path class="st0" d="M546.1,65.6v46.9c0,3.4,2.8,6.2,6.2,6.2h77c3.4,0,6.2-2.8,6.2-6.2v-46.9h-89.4ZM624.3,104.8c0,1.6-1.3,2.9-2.9,2.9h-61.1c-1.6,0-2.9-1.3-2.9-2.9v-7.4h67v7.4ZM624.3,86.4h-67v-9.7h67v9.7Z"/>
  <path class="st0" d="M597.3,6.7v45.9c0,4.2,3.4,7.6,7.6,7.6h29.8c4.1,0,7.4-3.3,7.4-7.4V6.7h-44.7ZM631.4,46.5c0,1.5-1.2,2.7-2.7,2.7h-17c-2,0-3.7-1.7-3.7-3.7v-27.5h23.4v28.4Z"/>
  <path class="st0" d="M461.3,33.4h6.7c1.9,0,3.5-1.6,3.5-3.5v-7.1h-9.6l5.8-17.1h-8.8c-1.5,0-2.8.9-3.3,2.3l-5,14.7h-3.8V3.6C446.8,1.6,445.2,0,443.2,0h-7.1v22.8h-4.4l-5.4-14.8c-.5-1.4-1.8-2.3-3.3-2.3h-9l6.2,17.1h-10.1v10.6h12.4c-.4,4.3-2.1,12.7-12.7,15.2v10.7c17.8-3.6,22.2-17,22.9-25.9h3.2v25.6h7.1c2,0,3.6-1.6,3.6-3.6v-22h3.1l6.9,21.1c.9,2.4,3.3,4,5.9,4h7.2l-8.5-25.1ZM469.2,66.2h-26.3c1.2-2.6,2.4-5.5,2.4-5.5h-9.1c-2.1,0-3.5,1.2-4.6,3.1-.9,1.6-1.4,2.5-1.4,2.5h-20.6v3.8c0,3.4,2.8,6.2,6.2,6.2h9.8c-4.5,7.3-12,15.9-12,15.9-1.1,1-.8,2.9.6,3.5l19.2,7.7c-6.3,2.7-13.9,4.4-23.2,4.4v10.7c16.2,0,28.2-4,36.9-9.3l23.9,10.1v-9.4c0-1.4-.8-2.7-2.1-3.2l-12.1-5c14.7-14.7,14.5-33.1,14.5-33.1.2-1.3-.8-2.4-2.1-2.4M445.5,97l-17.2-6.5c5.5-6.5,10.3-14.3,10.3-14.3h19.1s-1.8,13.4-12.3,20.8"/>
  <path class="st0" d="M310.8,54.3s-7.5,3.8-12.1,5.3v-28.2h6.6c3.2,0,5.8-2.6,5.8-5.8v-6.2h-12.4V6.2c0-3.1-2.5-5.5-5.5-5.5h-6.4v18.7h-12.1v12h12.1v32c-5.3,1.6-12.4,2.3-12.4,2.3v13.7s6-.6,12.4-2.4v26.1c0,2.4-1.9,4.3-4.3,4.3h-6.5v12h10.1c7,0,12.6-5.7,12.6-12.6v-33.3c6.6-2,12.1-5.4,12.1-5.4v-13.7ZM384.9,44.3v-18.6h-30.9v-7.6h27.3c3.2,0,5.8-2.6,5.8-5.8v-4.7h-33.1v-2.1c0-2.7-2.2-4.9-4.9-4.9h-7.1v7.1h-27.5v10.5h27.5v7.6h-26.7v10.5h26.7v8.1h-26.7v10.5h26.7v8.1h-26.7v10.5h26.7v34.3c-10.7,0-14.6-11.7-14.6-11.7,0,0,2.4-6.5,2.4-18h-11.3c.5,24.2-12.6,28.5-12.6,28.5v13s11.1-4.2,16.1-13.2c0,0,4.1,12.2,22.3,12.2h40.5c3,0,5.4-2.4,5.4-5.4v-5.1h-36.2v-12.9h25.9c3,0,5.4-2.4,5.4-5.4v-5.1h-31.3v-11.2h22.3c4.7,0,8.6-3.8,8.6-8.6v-10h3.3c3.4,0,6.2-2.8,6.2-6.2v-4.3h-9.5ZM372.9,62.9h-18.9v-8.1h18.9v8.1ZM372.9,44.3h-18.9v-8.1h18.9v8.1Z"/>
  <path class="st0" d="M516.8,24.3h-34v-11h39.2v5.9c0,2.8-2.3,5.1-5.2,5.1"/>
  <path class="st0" d="M505.3,24.2c0,27.8-1.5,66.5-31.7,82.5v12.4c43.7-21.7,41.9-69.4,42.3-95"/>
  <path class="st0" d="M477.6,24.2c-.2,30.8-.8,69.8,45.5,95v-13c-33.3-19.8-36.3-50.4-35.1-81.9"/>
  <path class="st0" d="M473,58.5h-9l-1.1-.9s-.7,0,.2-1.8c3.8-7.4,14.2-29,18.1-54.2h10s-4.8,31.5-18.1,56.9"/>
</svg>